<svg width="17" height="17" viewBox="0 0 17 17" fill="none" xmlns="http://www.w3.org/2000/svg">
<path d="M8.49998 0.583374C4.13473 0.583374 0.583313 4.13479 0.583313 8.50004C0.583313 12.8653 4.13473 16.4167 8.49998 16.4167C12.8652 16.4167 16.4166 12.8653 16.4166 8.50004C16.4166 4.13479 12.8652 0.583374 8.49998 0.583374ZM9.29165 13.25H7.70831V11.6667H9.29165V13.25ZM10.0643 9.38275C9.90915 9.50783 9.75952 9.62738 9.64077 9.74613C9.31777 10.0683 9.29244 10.3612 9.29165 10.3739V10.4792H7.70831V10.347C7.70831 10.2536 7.73127 9.41521 8.52056 8.62592C8.67494 8.47154 8.86652 8.31479 9.06761 8.15171C9.64869 7.68067 10.0303 7.33708 10.0303 6.86367C10.0211 6.46373 9.85571 6.08328 9.56957 5.80372C9.28343 5.52416 8.89924 5.36769 8.4992 5.36779C8.09916 5.36789 7.71505 5.52456 7.42905 5.80427C7.14305 6.08398 6.97789 6.46452 6.9689 6.86446H5.38556C5.38556 5.14733 6.78286 3.75004 8.49998 3.75004C10.2171 3.75004 11.6144 5.14733 11.6144 6.86446C11.6144 8.12875 10.681 8.88321 10.0643 9.38275Z" fill="#bd0820"/>
</svg>
