<svg width="161" height="156" viewBox="0 0 161 156" fill="none" xmlns="http://www.w3.org/2000/svg">
<path fill-rule="evenodd" clip-rule="evenodd" d="M140 0H21V5H15V99H21V103H41V110V115H26V120H21V125H15V130H10V135H5V141H0V146V151H5V156H156V151H161V146V141H156V135H151V130H146V125H140V120H135V115H120V110V103H140V99H146V5H140V0ZM140 5V98H21V5H140ZM108 110H53V115H108V110ZM135 120V125H140V130H146V135H151V141H10V135H15V130H21V125H26V120H135ZM31 16H36H125H130V89H125H36H31V16ZM36 84V21H125V84H36ZM15 151V146H146V151H15ZM125 125H130V130H125V125ZM130 130H135V135H130V130ZM115 125H108V130H115V135H120V130H115V125ZM94 125H99V130H94V125ZM99 130H103V135H99V130ZM77 130H72V135H77V130ZM84 130V125H77V130H84ZM84 130H89V135H84V130ZM36 125H31V130H26V135H31V130H36V125ZM46 125H53V130H46V125ZM46 130V135H41V130H46ZM67 125H62V130H57V135H62V130H67V125Z" fill="#BD0820"/>
</svg>
