<svg width="161" height="156" viewBox="0 0 161 156" fill="none" xmlns="http://www.w3.org/2000/svg">
<rect x="15" y="5" width="6" height="94" fill="#bd0820d6"/>
<rect x="31" y="16" width="5" height="73" fill="#bd0820d6"/>
<rect x="125" y="16" width="5" height="73" fill="#bd0820d6"/>
<rect x="140" y="5" width="6" height="94" fill="#bd0820d6"/>
<rect x="21" width="119" height="5" fill="#bd0820d6"/>
<rect x="21" y="98" width="119" height="5" fill="#bd0820d6"/>
<rect y="141" width="161" height="5" fill="#bd0820d6"/>
<rect x="5" y="151" width="151" height="5" fill="#bd0820d6"/>
<rect x="26" y="115" width="109" height="5" fill="#bd0820d6"/>
<rect x="41" y="110" width="12" height="5" fill="#bd0820d6"/>
<rect x="21" y="120" width="5" height="5" fill="#bd0820d6"/>
<rect x="135" y="120" width="5" height="5" fill="#bd0820d6"/>
<rect x="140" y="125" width="6" height="5" fill="#bd0820d6"/>
<rect x="125" y="125" width="5" height="5" fill="#bd0820d6"/>
<rect x="108" y="125" width="7" height="5" fill="#bd0820d6"/>
<rect x="94" y="125" width="5" height="5" fill="#bd0820d6"/>
<rect x="146" y="130" width="5" height="5" fill="#bd0820d6"/>
<rect x="130" y="130" width="5" height="5" fill="#bd0820d6"/>
<rect x="115" y="130" width="5" height="5" fill="#bd0820d6"/>
<rect x="99" y="130" width="4" height="5" fill="#bd0820d6"/>
<rect x="72" y="130" width="5" height="5" fill="#bd0820d6"/>
<rect x="84" y="130" width="5" height="5" fill="#bd0820d6"/>
<rect x="146" y="146" width="15" height="5" fill="#bd0820d6"/>
<rect y="146" width="15" height="5" fill="#bd0820d6"/>
<rect x="151" y="135" width="5" height="6" fill="#bd0820d6"/>
<rect x="15" y="125" width="6" height="5" fill="#bd0820d6"/>
<rect x="31" y="125" width="5" height="5" fill="#bd0820d6"/>
<rect x="46" y="125" width="7" height="5" fill="#bd0820d6"/>
<rect x="62" y="125" width="5" height="5" fill="#bd0820d6"/>
<rect x="77" y="125" width="7" height="5" fill="#bd0820d6"/>
<rect x="10" y="130" width="5" height="5" fill="#bd0820d6"/>
<rect x="26" y="130" width="5" height="5" fill="#bd0820d6"/>
<rect x="41" y="130" width="5" height="5" fill="#bd0820d6"/>
<rect x="57" y="130" width="5" height="5" fill="#bd0820d6"/>
<rect x="5" y="135" width="5" height="6" fill="#bd0820d6"/>
<rect x="108" y="110" width="12" height="5" fill="#bd0820d6"/>
<rect x="36" y="84" width="89" height="5" fill="#bd0820d6"/>
<rect x="36" y="16" width="89" height="5" fill="#bd0820d6"/>
<rect x="41" y="103" width="79" height="7" fill="#bd0820d6"/>
</svg>
