<svg width="48" height="35" viewBox="0 0 48 35" fill="none" xmlns="http://www.w3.org/2000/svg">
<rect x="1" y="2" width="10" height="32" fill="#4285F4"/>
<rect x="46.0593" y="34" width="9.99995" height="31.9999" transform="rotate(179.894 46.0593 34)" fill="#34A853"/>
<rect x="1" y="34" width="10" height="1" fill="#4285F4"/>
<rect x="46.0613" y="34.9814" width="10.0019" height="0.999998" transform="rotate(179.894 46.0613 34.9814)" fill="#34A853"/>
<rect y="4" width="1" height="30" fill="#4285F4"/>
<rect x="47.115" y="33.998" width="1.05566" height="29.998" transform="rotate(179.894 47.115 33.998)" fill="#34A853"/>
<rect x="2" y="1" width="8" height="1" fill="#4285F4"/>
<rect x="37.0593" y="1" width="8" height="1" fill="#34A853"/>
<rect x="3" width="6" height="1" fill="#4285F4"/>
<rect x="38.0522" width="6" height="1" fill="#34A853"/>
<rect x="11" y="4" width="1" height="13" fill="#EA4335"/>
<rect x="12" y="5" width="1" height="13" fill="#EA4335"/>
<rect x="13" y="6" width="1" height="13" fill="#EA4335"/>
<rect x="14" y="6" width="1" height="13" fill="#EA4335"/>
<rect x="15" y="7" width="1" height="13" fill="#EA4335"/>
<rect x="16" y="8" width="1" height="13" fill="#EA4335"/>
<rect x="17" y="8" width="1" height="13" fill="#EA4335"/>
<rect x="18" y="9" width="1" height="13" fill="#EA4335"/>
<rect x="19" y="10" width="1" height="13" fill="#EA4335"/>
<rect width="1" height="13" transform="matrix(-1 0 0 1 21 11)" fill="#EA4335"/>
<rect width="1" height="13" transform="matrix(-1 0 0 1 22 11)" fill="#EA4335"/>
<rect width="1" height="12" transform="matrix(-1 0 0 1 23 13)" fill="#EA4335"/>
<rect width="1" height="13" transform="matrix(-1 0 0 1 23 12)" fill="#EA4335"/>
<rect x="23" y="13" width="1" height="13" fill="#EA4335"/>
<rect x="24" y="12" width="1" height="13" fill="#EA4335"/>
<rect x="25" y="11" width="1" height="13" fill="#EA4335"/>
<rect x="26" y="11" width="1" height="13" fill="#EA4335"/>
<rect width="1" height="13" transform="matrix(-1 0 0 1 28 10)" fill="#EA4335"/>
<rect width="1" height="13" transform="matrix(-1 0 0 1 29 9)" fill="#EA4335"/>
<rect width="1" height="13" transform="matrix(-1 0 0 1 30 8)" fill="#EA4335"/>
<rect width="1" height="13" transform="matrix(-1 0 0 1 31 8)" fill="#EA4335"/>
<rect width="1" height="13" transform="matrix(-1 0 0 1 32 7)" fill="#EA4335"/>
<rect width="1" height="13" transform="matrix(-1 0 0 1 33 6)" fill="#EA4335"/>
<rect width="1" height="13" transform="matrix(-1 0 0 1 34 6)" fill="#EA4335"/>
<rect width="1" height="13" transform="matrix(-1 0 0 1 35 5)" fill="#EA4335"/>
<rect width="1" height="13" transform="matrix(-1 0 0 1 36 4)" fill="#EA4335"/>
<rect x="10" y="2" width="1" height="15" fill="#C5221F"/>
<rect x="36" y="2" width="1" height="15" fill="#FBBC04"/>
<rect x="9" y="1" width="1" height="15" fill="#C5221F"/>
<rect x="37" y="1" width="1" height="15" fill="#FBBC04"/>
<rect x="8" width="1" height="15" fill="#C5221F"/>
<rect x="38" width="1" height="15" fill="#FBBC04"/>
<rect x="7" width="1" height="15" fill="#C5221F"/>
<rect x="39" width="1" height="15" fill="#FBBC04"/>
<rect x="6" width="1" height="14" fill="#C5221F"/>
<rect x="40" width="1" height="14" fill="#FBBC04"/>
<rect x="5" width="1" height="13" fill="#C5221F"/>
<rect x="41" width="1" height="13" fill="#FBBC04"/>
<rect x="4" width="1" height="13" fill="#C5221F"/>
<rect x="42" width="1" height="13" fill="#FBBC04"/>
<rect x="3" width="1" height="12" fill="#C5221F"/>
<rect x="43" width="1" height="12" fill="#FBBC04"/>
<rect x="2" y="1" width="1" height="10" fill="#C5221F"/>
<rect x="44" y="1" width="1" height="10" fill="#FBBC04"/>
<rect x="1" y="2" width="1" height="9" fill="#C5221F"/>
<rect x="45" y="2" width="1" height="9" fill="#FBBC04"/>
<rect y="4" width="1" height="6" fill="#C5221F"/>
<rect x="46" y="4" width="1" height="6" fill="#FBBC04"/>
</svg>
