<svg width="38" height="28" viewBox="0 0 38 28" fill="none" xmlns="http://www.w3.org/2000/svg">
<path fill-rule="evenodd" clip-rule="evenodd" d="M5.6001 0H5.60005H4.80005H4.8H4H3.99995H3.19995H2.39995H2.3999V0.8H2.39995V2.40002H1.6001V3.19995H1.60005V2.40002H0.800049V3.19995H0.8V2.40002H0V3.19995V8.00002V27.2V28H0.800049H8.8H8.80005V27.2H8.8V12.8V3.19995V2.40002H8V3.19995H7.99995V2.40002H7.19995V3.19995H7.1999V2.40002H6.4001V0H6.3999H5.6001ZM3.99995 3.19995V0.8H4V3.19995H3.99995ZM4.8 3.19995V0.8H4.80005V3.19995H4.8ZM5.60005 3.19995V0.8H5.6001V3.19995H5.60005ZM28.8015 15.2L28.8015 27.1851H28.8001V27.6V28L36.8476 28L36.8476 27.2278L36.849 27.9984L37.5993 27.9984L37.5993 8.00002H37.6V2.40002H36.8V2.41512H36.8V2.40002H36V2.4166H36V2.40002H35.2V2.41809H35.1999V0H34.4001H34.3999H33.6001V2.42106H33.6V0H32.8V2.42254H32.8V0H32V2.42402H32V0H31.2V2.42551H31.1999V2.40002H30.4001H30.3999H29.6001V2.42847H29.6V2.40002H28.8V4.80005H28.0001V15.2H28.8015ZM36.8118 8.00002L36.8474 27.1851H36.8475L36.812 8.00002H36.8118ZM8.80005 4.80005H9.60005V15.2H8.80005V4.80005ZM10.3999 4.80005H9.6001V15.2H10.3999H10.4001H11.1999V4.80005H10.4001H10.3999ZM12 4.80005H11.2V17.6H12V4.80005ZM12 6.40002H12.8V17.6H12V6.40002ZM13.6 6.40002H12.8V17.6H13.6V6.40002ZM13.6001 6.40002H14.3999H14.4001H15.1999V17.6H14.4001H14.3999H13.6001V6.40002ZM15.2 8.80005H16V20H15.2V8.80005ZM16 8.80005H16.8V20H16V8.80005ZM17.6001 8.80005H16.8001V20H17.5999V21.6H18.3999H19.1999V10.4H18.3999H17.6001V8.80005ZM19.2 10.4H20V21.6H19.2V10.4ZM20.8 8.80005H20V20H20.8V8.80005ZM20.8 8.80005H21.5999H21.6H22.3999V20H21.6H21.5999H20.8V8.80005ZM23.2 6.40002H22.4V17.6H23.2V6.40002ZM23.2 6.40002H24V17.6H23.2V6.40002ZM24.8 6.40002H24V17.6H24.8V6.40002ZM24.8001 6.40002H25.5999V4.80005H26.3999V15.2H25.6001V17.6H24.8001V6.40002ZM26.4 4.80005H27.2V15.2H26.4V4.80005ZM28 4.80005H27.2V15.2H28V4.80005Z" fill="#BD0808"/>
</svg>
