<svg width="17" height="17" viewBox="0 0 17 17" fill="none" xmlns="http://www.w3.org/2000/svg">
<path d="M16 1H17V16H16V17H1V16H0V1H1V0H16V1Z" fill="url(#paint0_linear_758_44)"/>
<rect x="7" y="5" width="3" height="1" fill="white"/>
<rect x="7" y="11" width="3" height="1" fill="white"/>
<rect width="1" height="3" transform="matrix(-1 0 0 1 6 7)" fill="white"/>
<rect x="11" y="7" width="1" height="3" fill="white"/>
<rect x="6" y="6" width="1" height="1" fill="white"/>
<rect x="10" y="6" width="1" height="1" fill="white"/>
<rect x="6" y="10" width="1" height="1" fill="white"/>
<rect x="10" y="10" width="1" height="1" fill="white"/>
<rect x="11" y="5" width="1" height="1" fill="white"/>
<rect x="2" y="4" width="1" height="9" fill="white"/>
<rect x="14" y="4" width="1" height="9" fill="white"/>
<rect x="4" y="14" width="9" height="1" fill="white"/>
<rect x="4" y="2" width="9" height="1" fill="white"/>
<rect x="3" y="13" width="1" height="1" fill="white"/>
<rect x="3" y="3" width="1" height="1" fill="white"/>
<rect x="13" y="3" width="1" height="1" fill="white"/>
<rect x="13" y="13" width="1" height="1" fill="white"/>
<defs>
<linearGradient id="paint0_linear_758_44" x1="17" y1="0.5" x2="0.5" y2="17" gradientUnits="userSpaceOnUse">
<stop stop-color="#DD2D75"/>
<stop offset="1" stop-color="#5851CB"/>
</linearGradient>
</defs>
</svg>
