<svg width="33" height="33" viewBox="0 0 33 33" fill="none" xmlns="http://www.w3.org/2000/svg">
<rect x="1" y="1" width="31" height="31" fill="#1D8CB5"/>
<rect y="4" width="2" height="25" fill="#1D8CB5"/>
<rect x="31" y="4" width="2" height="25" fill="#1D8CB5"/>
<rect x="4" width="25" height="2" fill="#1D8CB5"/>
<rect x="4" y="31" width="25" height="2" fill="#1D8CB5"/>
<rect x="8" y="6" width="4" height="4" fill="white"/>
<rect x="8" y="13" width="4" height="12" fill="white"/>
<rect x="14" y="13" width="4" height="12" fill="white"/>
<rect x="23" y="15" width="4" height="10" fill="white"/>
<rect x="23" y="14" width="3" height="1" fill="white"/>
<rect x="23" y="13" width="2" height="1" fill="white"/>
<rect x="18" y="15" width="1" height="4" fill="white"/>
<rect x="19" y="14" width="1" height="4" fill="white"/>
<rect x="20" y="13" width="2" height="4" fill="white"/>
<rect x="9" y="5" width="2" height="1" fill="white"/>
<rect x="9" y="10" width="2" height="1" fill="white"/>
<rect x="12" y="7" width="1" height="2" fill="white"/>
<rect x="7" y="7" width="1" height="2" fill="white"/>
<rect x="22" y="13" width="1" height="5" fill="white"/>
</svg>
