<svg width="35" height="35" viewBox="0 0 35 35" fill="none" xmlns="http://www.w3.org/2000/svg">
<path fill-rule="evenodd" clip-rule="evenodd" d="M25.5769 1.34598H22.885V3.76701e-05H12.1157V1.34598H8.0769V2.69214H25.5769V1.34598ZM2.69235 8.0769H1.34619V25.5769H2.69235V8.0769ZM33.6538 8.0769H32.3076V25.5769H33.6538V8.0769ZM25.5769 33.654V32.3079H8.0769V33.654H12.115V35H22.8843V33.654H25.5769ZM0 12.1154H1.34615V22.8846H0V12.1154ZM35 12.1154H33.6538V22.8846H35V12.1154ZM2.69238 6.73071H4.03854V28.2692H2.69238V6.73071ZM30.9614 9.42307H4.03857V4.03845H6.73071V2.6923H28.2692V4.03845H30.9617V6.73071H32.3076V28.2692H30.9615V30.9616L28.2693 30.9615V32.3077H6.73083V30.9615L4.03857 30.9616V9.4231H8.0769H8.07704H20.1923V10.7692H8.07704V10.7693H16.1538V12.1154H12.1154V13.4615H8.07704V13.4615H9.42306V14.8077H8.07704V17.5H9.42306V21.5385H9.4231V18.8462H10.7692V21.5385L14.8077 21.5385V24.2307H16.1538V26.923H14.8077V26.9231H8.07704V26.9231H25.5769V9.4231H30.9614V9.42307ZM16.1538 25.5769H17.5V26.9231H16.1538V25.5769ZM25.5766 21.5385H22.8843V24.2307H21.5386V26.923H22.8843V26.9231H25.5766V21.5385ZM25.5769 16.1538H24.2307V21.5384H25.5769V16.1538ZM24.2307 9.4231H25.5769V10.7692H24.2307V9.4231ZM10.7693 20.1921H12.1154V21.5383H10.7693V20.1921ZM16.1538 18.8462H14.8076V20.1921H13.4614V21.5383H16.1537V20.1923H16.1538V18.8462ZM17.5 17.5H16.1538V18.8462H17.5V17.5ZM17.5 16.1538H18.8462V17.5H17.5V16.1538Z" fill="#BD0808"/>
</svg>
